ffmpeg started on 2025-06-19 at 11:49:11
Report written to "D:\Convert\FFMetrics\reports\psnr_report-6.txt"
Log level: 32
Command line:
ffmpeg -hide_banner -nostdin -i "G:\\\xc0\xed\xe8\xec\xe5\\[\xd2\xee\xef-4]\\Fate\\\xc0\xef\xee\xea\xf0\xe8\xf4\\Fate_Apocrypha_[06]_[AniLibria_TV]_[HDTVRip_720p]_HEVC.mkv" -i "G:\\\xc0\xed\xe8\xec\xe5\\[\xd2\xee\xef-4]\\Fate\\\xc0\xef\xee\xea\xf0\xe8\xf4\\Fate_Apocrypha_[06]_[AniLibria_TV]_[HDTVRip_720p].mkv" -lavfi "[0:v]settb=AVTB,setpts=PTS-STARTPTS,format=pix_fmts=yuv420p10,fps=24000/1001,scale=1280:720:flags=bicubic[main];[1:v]settb=AVTB,setpts=PTS-STARTPTS,format=pix_fmts=yuv420p,fps=24000/1001,scale=1280:720:flags=bicubic[ref];[main][ref]psnr=eof_action=endall:stats_file='D\\:/Convert/FFMetrics/logs/psnr_logfile-6.txt'" -f null -
Input #0, matroska,webm, from 'G:\Аниме\[Топ-4]\Fate\Апокриф\Fate_Apocrypha_[06]_[AniLibria_TV]_[HDTVRip_720p]_HEVC.mkv':
  Metadata:
    ENCODER         : Lavf61.7.100
  Duration: 00:24:00.11, start: -0.021000, bitrate: 675 kb/s
  Stream #0:0(jpn): Video: hevc (Main 10), yuv420p10le(tv, bt709, progressive), 1280x720 [SAR 1:1 DAR 16:9], 23.81 fps, 23.81 tbr, 1k tbn (default)
      Metadata:
        ENCODER         : Lavc61.19.100 libx265
        BPS             : 477842
        DURATION        : 00:23:59.970000000
        NUMBER_OF_FRAMES: 34524
        NUMBER_OF_BYTES : 86009801
        _STATISTICS_WRITING_APP: mkvpropedit v66.0.0 ('Josie') 64-bit
        _STATISTICS_WRITING_DATE_UTC: 2025-06-16 15:30:19
        _STATISTICS_TAGS: BPS DURATION NUMBER_OF_FRAMES NUMBER_OF_BYTES
  Stream #0:1(rus): Audio: aac (LC), 48000 Hz, stereo, fltp (default)
      Metadata:
        title           : Ados Amikiri Anzen Hekomi Silv
        ENCODER         : Lavc61.19.100 aac
        BPS             : 193799
        DURATION        : 00:24:00.085000000
        NUMBER_OF_FRAMES: 67505
        NUMBER_OF_BYTES : 34885929
        _STATISTICS_WRITING_APP: mkvpropedit v66.0.0 ('Josie') 64-bit
        _STATISTICS_WRITING_DATE_UTC: 2025-06-16 15:30:19
        _STATISTICS_TAGS: BPS DURATION NUMBER_OF_FRAMES NUMBER_OF_BYTES
  Stream #0:2(rus): Subtitle: ass (ssa) (default) (forced)
      Metadata:
        title           : Надписи
        BPS             : 16
        DURATION        : 00:02:29.340000000
        NUMBER_OF_FRAMES: 3
        NUMBER_OF_BYTES : 303
        _STATISTICS_WRITING_APP: mkvpropedit v66.0.0 ('Josie') 64-bit
        _STATISTICS_WRITING_DATE_UTC: 2025-06-16 15:30:19
        _STATISTICS_TAGS: BPS DURATION NUMBER_OF_FRAMES NUMBER_OF_BYTES
  Stream #0:3(rus): Subtitle: ass (ssa)
      Metadata:
        title           : Полные
        BPS             : 130
        DURATION        : 00:22:10.720000000
        NUMBER_OF_FRAMES: 307
        NUMBER_OF_BYTES : 21681
        _STATISTICS_WRITING_APP: mkvpropedit v66.0.0 ('Josie') 64-bit
        _STATISTICS_WRITING_DATE_UTC: 2025-06-16 15:30:19
        _STATISTICS_TAGS: BPS DURATION NUMBER_OF_FRAMES NUMBER_OF_BYTES
Input #1, matroska,webm, from 'G:\Аниме\[Топ-4]\Fate\Апокриф\Fate_Apocrypha_[06]_[AniLibria_TV]_[HDTVRip_720p].mkv':
  Metadata:
    encoder         : libebml v1.3.0 + libmatroska v1.4.1
    creation_time   : 2017-08-07T21:57:42.000000Z
  Duration: 00:24:00.09, start: 0.000000, bitrate: 2136 kb/s
  Stream #1:0: Video: h264 (Main), yuv420p(tv, bt709, progressive), 1280x720, SAR 1:1 DAR 16:9, 23.81 fps, 23.81 tbr, 1k tbn (default)
      Metadata:
        _STATISTICS_WRITING_APP: mkvmerge v7.3.0 ('Nouages') 64bit built on Oct 22 2014 18:53:34
        _STATISTICS_WRITING_APP-eng: mkvmerge v7.3.0 ('Nouages') 64bit built on Oct 22 2014 18:53:34
        _STATISTICS_WRITING_DATE_UTC: 2017-08-07 21:57:42
        _STATISTICS_WRITING_DATE_UTC-eng: 2017-08-07 21:57:42
        _STATISTICS_TAGS: BPS DURATION NUMBER_OF_FRAMES NUMBER_OF_BYTES
        _STATISTICS_TAGS-eng: BPS DURATION NUMBER_OF_FRAMES NUMBER_OF_BYTES
        BPS             : 1727809
        BPS-eng         : 1727809
        DURATION        : 00:23:59.975000000
        DURATION-eng    : 00:23:59.975000000
        NUMBER_OF_FRAMES: 34524
        NUMBER_OF_FRAMES-eng: 34524
        NUMBER_OF_BYTES : 311000289
        NUMBER_OF_BYTES-eng: 311000289
  Stream #1:1(rus): Audio: aac (LC), 48000 Hz, stereo, fltp (default)
      Metadata:
        title           : Ados Amikiri Anzen Hekomi Silv
        BPS             : 192091
        BPS-eng         : 192091
        DURATION        : 00:24:00.085000000
        DURATION-eng    : 00:24:00.085000000
        NUMBER_OF_FRAMES: 67504
        NUMBER_OF_FRAMES-eng: 67504
        NUMBER_OF_BYTES : 34578436
        NUMBER_OF_BYTES-eng: 34578436
        _STATISTICS_WRITING_APP: mkvmerge v7.3.0 ('Nouages') 64bit built on Oct 22 2014 18:53:34
        _STATISTICS_WRITING_APP-eng: mkvmerge v7.3.0 ('Nouages') 64bit built on Oct 22 2014 18:53:34
        _STATISTICS_WRITING_DATE_UTC: 2017-08-07 21:57:42
        _STATISTICS_WRITING_DATE_UTC-eng: 2017-08-07 21:57:42
        _STATISTICS_TAGS: BPS DURATION NUMBER_OF_FRAMES NUMBER_OF_BYTES
        _STATISTICS_TAGS-eng: BPS DURATION NUMBER_OF_FRAMES NUMBER_OF_BYTES
  Stream #1:2(jpn): Audio: aac (LC), 48000 Hz, stereo, fltp
      Metadata:
        title           : Оригинал
        _STATISTICS_WRITING_APP: mkvmerge v7.3.0 ('Nouages') 64bit built on Oct 22 2014 18:53:34
        _STATISTICS_WRITING_APP-eng: mkvmerge v7.3.0 ('Nouages') 64bit built on Oct 22 2014 18:53:34
        _STATISTICS_WRITING_DATE_UTC: 2017-08-07 21:57:42
        _STATISTICS_WRITING_DATE_UTC-eng: 2017-08-07 21:57:42
        _STATISTICS_TAGS: BPS DURATION NUMBER_OF_FRAMES NUMBER_OF_BYTES
        _STATISTICS_TAGS-eng: BPS DURATION NUMBER_OF_FRAMES NUMBER_OF_BYTES
        BPS             : 211862
        BPS-eng         : 211862
        DURATION        : 00:24:00.042000000
        DURATION-eng    : 00:24:00.042000000
        NUMBER_OF_FRAMES: 67502
        NUMBER_OF_FRAMES-eng: 67502
        NUMBER_OF_BYTES : 38136404
        NUMBER_OF_BYTES-eng: 38136404
  Stream #1:3(rus): Subtitle: ass (ssa) (default) (forced)
      Metadata:
        title           : Надписи
        _STATISTICS_WRITING_APP: mkvmerge v7.3.0 ('Nouages') 64bit built on Oct 22 2014 18:53:34
        _STATISTICS_WRITING_APP-eng: mkvmerge v7.3.0 ('Nouages') 64bit built on Oct 22 2014 18:53:34
        _STATISTICS_WRITING_DATE_UTC: 2017-08-07 21:57:42
        _STATISTICS_WRITING_DATE_UTC-eng: 2017-08-07 21:57:42
        _STATISTICS_TAGS: BPS DURATION NUMBER_OF_FRAMES NUMBER_OF_BYTES
        _STATISTICS_TAGS-eng: BPS DURATION NUMBER_OF_FRAMES NUMBER_OF_BYTES
        BPS             : 16
        BPS-eng         : 16
        DURATION        : 00:02:29.340000000
        DURATION-eng    : 00:02:29.340000000
        NUMBER_OF_FRAMES: 3
        NUMBER_OF_FRAMES-eng: 3
        NUMBER_OF_BYTES : 303
        NUMBER_OF_BYTES-eng: 303
  Stream #1:4(rus): Subtitle: ass (ssa)
      Metadata:
        title           : Полные
        _STATISTICS_WRITING_APP: mkvmerge v7.3.0 ('Nouages') 64bit built on Oct 22 2014 18:53:34
        _STATISTICS_WRITING_APP-eng: mkvmerge v7.3.0 ('Nouages') 64bit built on Oct 22 2014 18:53:34
        _STATISTICS_WRITING_DATE_UTC: 2017-08-07 21:57:42
        _STATISTICS_WRITING_DATE_UTC-eng: 2017-08-07 21:57:42
        _STATISTICS_TAGS: BPS DURATION NUMBER_OF_FRAMES NUMBER_OF_BYTES
        _STATISTICS_TAGS-eng: BPS DURATION NUMBER_OF_FRAMES NUMBER_OF_BYTES
        BPS             : 130
        BPS-eng         : 130
        DURATION        : 00:22:10.720000000
        DURATION-eng    : 00:22:10.720000000
        NUMBER_OF_FRAMES: 307
        NUMBER_OF_FRAMES-eng: 307
        NUMBER_OF_BYTES : 21681
        NUMBER_OF_BYTES-eng: 21681
  Stream #1:5: Attachment: ttf
      Metadata:
        filename        : ALBR.ttf
        mimetype        : application/x-truetype-font
  Stream #1:6: Attachment: ttf
      Metadata:
        filename        : 9511(1).ttf
        mimetype        : application/x-truetype-font
Stream mapping:
  Stream #0:0 (hevc) -> settb:default
  Stream #1:0 (h264) -> settb:default
  psnr:default -> Stream #0:0 (wrapped_avframe)
  Stream #0:1 -> #0:1 (aac (native) -> pcm_s16le (native))
Output #0, null, to 'pipe:':
  Metadata:
    encoder         : Lavf61.7.100
  Stream #0:0: Video: wrapped_avframe, yuv420p10le(tv, bt709, progressive), 1280x720 [SAR 1:1 DAR 16:9], q=2-31, 200 kb/s, 23.98 fps, 23.98 tbn
      Metadata:
        encoder         : Lavc61.19.100 wrapped_avframe
  Stream #0:1(rus): Audio: pcm_s16le, 48000 Hz, stereo, s16, 1536 kb/s (default)
      Metadata:
        title           : Ados Amikiri Anzen Hekomi Silv
        _STATISTICS_TAGS: BPS DURATION NUMBER_OF_FRAMES NUMBER_OF_BYTES
        BPS             : 193799
        DURATION        : 00:24:00.085000000
        NUMBER_OF_FRAMES: 67505
        NUMBER_OF_BYTES : 34885929
        _STATISTICS_WRITING_APP: mkvpropedit v66.0.0 ('Josie') 64-bit
        _STATISTICS_WRITING_DATE_UTC: 2025-06-16 15:30:19
        encoder         : Lavc61.19.100 pcm_s16le
frame=  395 fps=0.0 q=-0.0 size=N/A time=00:00:16.47 bitrate=N/A speed=32.7x    frame=  964 fps=934 q=-0.0 size=N/A time=00:00:40.20 bitrate=N/A speed=38.9x    frame= 1438 fps=933 q=-0.0 size=N/A time=00:00:59.97 bitrate=N/A speed=38.9x    frame= 1933 fps=942 q=-0.0 size=N/A time=00:01:20.62 bitrate=N/A speed=39.3x    frame= 2396 fps=930 q=-0.0 size=N/A time=00:01:39.93 bitrate=N/A speed=38.8x    frame= 2828 fps=916 q=-0.0 size=N/A time=00:01:57.95 bitrate=N/A speed=38.2x    frame= 3356 fps=929 q=-0.0 size=N/A time=00:02:19.97 bitrate=N/A speed=38.7x    frame= 3755 fps=910 q=-0.0 size=N/A time=00:02:36.61 bitrate=N/A speed=  38x    frame= 4088 fps=882 q=-0.0 size=N/A time=00:02:50.50 bitrate=N/A speed=36.8x    frame= 4553 fps=884 q=-0.0 size=N/A time=00:03:09.89 bitrate=N/A speed=36.8x    frame= 4878 fps=860 q=-0.0 size=N/A time=00:03:23.45 bitrate=N/A speed=35.9x    frame= 5361 fps=867 q=-0.0 size=N/A time=00:03:43.64 bitrate=N/A speed=36.2x    frame= 5942 fps=888 q=-0.0 size=N/A time=00:04:07.83 bitrate=N/A speed=  37x    frame= 6444 fps=893 q=-0.0 size=N/A time=00:04:28.76 bitrate=N/A speed=37.2x    frame= 7026 fps=908 q=-0.0 size=N/A time=00:04:53.04 bitrate=N/A speed=37.9x    frame= 7593 fps=921 q=-0.0 size=N/A time=00:05:16.69 bitrate=N/A speed=38.4x    frame= 8175 fps=933 q=-0.0 size=N/A time=00:05:40.96 bitrate=N/A speed=38.9x    frame= 8758 fps=943 q=-0.0 size=N/A time=00:06:05.28 bitrate=N/A speed=39.3x    frame= 9257 fps=945 q=-0.0 size=N/A time=00:06:26.09 bitrate=N/A speed=39.4x    frame= 9882 fps=958 q=-0.0 size=N/A time=00:06:52.16 bitrate=N/A speed=  40x    frame=10439 fps=964 q=-0.0 size=N/A time=00:07:15.39 bitrate=N/A speed=40.2x    frame=11043 fps=973 q=-0.0 size=N/A time=00:07:40.58 bitrate=N/A speed=40.6x    frame=11676 fps=985 q=-0.0 size=N/A time=00:08:06.98 bitrate=N/A speed=41.1x    frame=12274 fps=992 q=-0.0 size=N/A time=00:08:31.92 bitrate=N/A speed=41.4x    frame=12839 fps=996 q=-0.0 size=N/A time=00:08:55.49 bitrate=N/A speed=41.5x    frame=13489 fps=1007 q=-0.0 size=N/A time=00:09:22.60 bitrate=N/A speed=  42x    frame=14078 fps=1012 q=-0.0 size=N/A time=00:09:47.16 bitrate=N/A speed=42.2x    frame=14715 fps=1019 q=-0.0 size=N/A time=00:10:13.73 bitrate=N/A speed=42.5x    frame=15258 fps=1021 q=-0.0 size=N/A time=00:10:36.38 bitrate=N/A speed=42.6x    frame=15855 fps=1025 q=-0.0 size=N/A time=00:11:01.28 bitrate=N/A speed=42.8x    frame=16440 fps=1029 q=-0.0 size=N/A time=00:11:25.68 bitrate=N/A speed=42.9x    frame=16951 fps=1027 q=-0.0 size=N/A time=00:11:46.99 bitrate=N/A speed=42.8x    frame=17305 fps=1016 q=-0.0 size=N/A time=00:12:01.76 bitrate=N/A speed=42.4x    frame=17874 fps=1019 q=-0.0 size=N/A time=00:12:25.49 bitrate=N/A speed=42.5x    frame=18464 fps=1023 q=-0.0 size=N/A time=00:12:50.10 bitrate=N/A speed=42.7x    frame=19094 fps=1028 q=-0.0 size=N/A time=00:13:16.37 bitrate=N/A speed=42.9x    frame=19666 fps=1030 q=-0.0 size=N/A time=00:13:40.23 bitrate=N/A speed=  43x    frame=20274 fps=1034 q=-0.0 size=N/A time=00:14:05.59 bitrate=N/A speed=43.1x    frame=20834 fps=1035 q=-0.0 size=N/A time=00:14:28.95 bitrate=N/A speed=43.2x    frame=21437 fps=1039 q=-0.0 size=N/A time=00:14:54.10 bitrate=N/A speed=43.3x    frame=22035 fps=1042 q=-0.0 size=N/A time=00:15:19.04 bitrate=N/A speed=43.5x    frame=22627 fps=1044 q=-0.0 size=N/A time=00:15:43.73 bitrate=N/A speed=43.5x    frame=23128 fps=1043 q=-0.0 size=N/A time=00:16:04.63 bitrate=N/A speed=43.5x    frame=23499 fps=1035 q=-0.0 size=N/A time=00:16:20.10 bitrate=N/A speed=43.2x    frame=24024 fps=1035 q=-0.0 size=N/A time=00:16:42.00 bitrate=N/A speed=43.2x    frame=24469 fps=1031 q=-0.0 size=N/A time=00:17:00.56 bitrate=N/A speed=  43x    frame=25008 fps=1032 q=-0.0 size=N/A time=00:17:23.04 bitrate=N/A speed=  43x    frame=25528 fps=1031 q=-0.0 size=N/A time=00:17:44.73 bitrate=N/A speed=  43x    frame=25941 fps=1026 q=-0.0 size=N/A time=00:18:01.95 bitrate=N/A speed=42.8x    frame=26418 fps=1024 q=-0.0 size=N/A time=00:18:21.85 bitrate=N/A speed=42.7x    frame=26980 fps=1026 q=-0.0 size=N/A time=00:18:45.29 bitrate=N/A speed=42.8x    frame=27362 fps=1020 q=-0.0 size=N/A time=00:19:01.22 bitrate=N/A speed=42.5x    frame=27786 fps=1016 q=-0.0 size=N/A time=00:19:18.90 bitrate=N/A speed=42.4x    frame=28147 fps=1010 q=-0.0 size=N/A time=00:19:33.96 bitrate=N/A speed=42.1x    frame=28520 fps=1005 q=-0.0 size=N/A time=00:19:49.52 bitrate=N/A speed=41.9x    frame=29060 fps=1006 q=-0.0 size=N/A time=00:20:12.04 bitrate=N/A speed=  42x    frame=29705 fps=1010 q=-0.0 size=N/A time=00:20:38.94 bitrate=N/A speed=42.1x    frame=30308 fps=1013 q=-0.0 size=N/A time=00:21:04.09 bitrate=N/A speed=42.3x    frame=30711 fps=1009 q=-0.0 size=N/A time=00:21:20.90 bitrate=N/A speed=42.1x    frame=31145 fps=1006 q=-0.0 size=N/A time=00:21:39.00 bitrate=N/A speed=  42x    frame=31572 fps=1004 q=-0.0 size=N/A time=00:21:56.81 bitrate=N/A speed=41.9x    frame=32020 fps=1001 q=-0.0 size=N/A time=00:22:15.50 bitrate=N/A speed=41.8x    frame=32414 fps=997 q=-0.0 size=N/A time=00:22:31.93 bitrate=N/A speed=41.6x    frame=32736 fps=991 q=-0.0 size=N/A time=00:22:45.36 bitrate=N/A speed=41.4x    frame=33212 fps=991 q=-0.0 size=N/A time=00:23:05.21 bitrate=N/A speed=41.3x    frame=33562 fps=986 q=-0.0 size=N/A time=00:23:19.81 bitrate=N/A speed=41.1x    frame=33888 fps=980 q=-0.0 size=N/A time=00:23:33.41 bitrate=N/A speed=40.9x    frame=34227 fps=976 q=-0.0 size=N/A time=00:23:47.55 bitrate=N/A speed=40.7x    [Parsed_psnr_10 @ 0000021dbc63b9c0] PSNR y:36.289222 u:45.877502 v:46.842433 average:37.840327 min:5.312259 max:64.564311
[out#0/null @ 0000021db07144c0] video:14835KiB audio:270020KiB subtitle:0KiB other streams:0KiB global headers:0KiB muxing overhead: unknown
frame=34525 fps=977 q=-0.0 Lsize=N/A time=00:23:59.98 bitrate=N/A speed=40.8x    
